<svg
  className='Stagora'
  role="img"
  aria-label='Stagora'
  width="128"
  height="full"
  viewBox="0 0 241.000000 241.000000"
  xmlns="http://www.w3.org/2000/svg"
  preserveAspectRatio="xMidYMid meet"
>
  <g transform="translate(0.000000,241.000000) scale(0.100000,-0.100000)" fill="currentColor" stroke="none">
    <path
      d="M961 2115 c-257 -56 -477 -210 -605 -423 -217 -362 -167 -820 121
			-1124 35 -36 35 -36 71 -21 94 39 239 166 290 253 15 24 52 100 84 168 31 68
			62 130 68 137 8 10 0 16 -39 25 -85 20 -180 123 -181 196 0 20 4 21 48 17 72
			-7 145 -30 183 -57 67 -49 83 -55 106 -42 l22 11 -19 31 c-11 17 -30 35 -42
			42 -13 6 -71 33 -130 61 -123 58 -207 129 -253 213 -27 48 -30 61 -30 148 0
			82 4 103 27 153 37 79 53 68 42 -27 -11 -100 -9 -157 7 -191 14 -29 49 -47 49
			-25 0 6 45 79 100 162 65 99 101 146 105 136 8 -20 -25 -105 -62 -159 -87
			-127 -100 -210 -43 -282 22 -28 132 -87 161 -87 24 0 44 41 65 131 9 41 26 92
			37 114 19 36 22 38 25 17 2 -13 -1 -69 -7 -123 -15 -133 -14 -179 2 -179 7 0
			49 34 94 76 121 111 157 197 170 407 3 53 9 97 13 97 11 0 30 -106 30 -166 0
			-44 -14 -131 -37 -233 -5 -22 -4 -23 23 -17 43 11 119 63 153 104 28 34 30 35
			31 14 1 -63 -73 -134 -204 -198 -95 -47 -186 -118 -186 -147 0 -9 20 -25 48
			-37 26 -12 57 -27 69 -32 12 -6 57 -40 99 -75 43 -35 119 -87 171 -114 101
			-55 109 -68 79 -127 -28 -53 -51 -65 -144 -73 -48 -4 -131 -13 -185 -20 -73
			-10 -105 -10 -127 -2 -17 6 -30 9 -30 7 0 -16 33 -65 50 -74 25 -13 26 -56 5
			-155 -20 -98 -49 -176 -95 -263 l-41 -75 83 6 c301 22 584 210 725 482 285
			550 -28 1215 -629 1339 -94 20 -278 20 -367 1z"
    />
  </g>
</svg>